<mxfile host="Electron" modified="2024-02-13T22:04:47.055Z" agent="Mozilla/5.0 (Windows NT 10.0; Win64; x64) AppleWebKit/537.36 (KHTML, like Gecko) draw.io/21.2.8 Chrome/112.0.5615.165 Electron/24.2.0 Safari/537.36" etag="R-ofFcb0RBGmCvHzYjyf" version="21.2.8" type="device">
  <diagram name="Page-1" id="-BcBPeY8aCNPfQ4lyzf7">
    <mxGraphModel dx="213" dy="192" grid="1" gridSize="10" guides="1" tooltips="1" connect="1" arrows="1" fold="1" page="1" pageScale="1" pageWidth="850" pageHeight="1100" math="0" shadow="0">
      <root>
        <mxCell id="0" />
        <mxCell id="1" parent="0" />
        <mxCell id="Q1qOo3lim8uSCVK3Y5Fo-1" value="" style="endArrow=none;html=1;rounded=0;" edge="1" parent="1">
          <mxGeometry width="50" height="50" relative="1" as="geometry">
            <mxPoint x="305" y="754.9999999999999" as="sourcePoint" />
            <mxPoint x="305" y="725" as="targetPoint" />
          </mxGeometry>
        </mxCell>
        <mxCell id="Q1qOo3lim8uSCVK3Y5Fo-2" value="" style="endArrow=none;html=1;rounded=0;" edge="1" parent="1">
          <mxGeometry width="50" height="50" relative="1" as="geometry">
            <mxPoint x="300" y="750" as="sourcePoint" />
            <mxPoint x="300" y="730" as="targetPoint" />
          </mxGeometry>
        </mxCell>
        <mxCell id="Q1qOo3lim8uSCVK3Y5Fo-3" value="" style="endArrow=none;html=1;rounded=0;endFill=0;" edge="1" parent="1">
          <mxGeometry width="50" height="50" relative="1" as="geometry">
            <mxPoint x="320" y="730" as="sourcePoint" />
            <mxPoint x="305" y="730" as="targetPoint" />
          </mxGeometry>
        </mxCell>
        <mxCell id="Q1qOo3lim8uSCVK3Y5Fo-4" value="" style="endArrow=none;html=1;rounded=0;endFill=0;startArrow=block;startFill=1;startSize=4;endSize=4;" edge="1" parent="1">
          <mxGeometry width="50" height="50" relative="1" as="geometry">
            <mxPoint x="320" y="750" as="sourcePoint" />
            <mxPoint x="305" y="750" as="targetPoint" />
          </mxGeometry>
        </mxCell>
        <mxCell id="Q1qOo3lim8uSCVK3Y5Fo-5" value="" style="endArrow=none;html=1;rounded=0;endFill=0;startArrow=oval;startFill=0;startSize=4;endSize=4;" edge="1" parent="1">
          <mxGeometry width="50" height="50" relative="1" as="geometry">
            <mxPoint x="320" y="690" as="sourcePoint" />
            <mxPoint x="310" y="730" as="targetPoint" />
            <Array as="points">
              <mxPoint x="320" y="730" />
            </Array>
          </mxGeometry>
        </mxCell>
        <mxCell id="Q1qOo3lim8uSCVK3Y5Fo-7" value="" style="endArrow=none;html=1;rounded=0;" edge="1" parent="1">
          <mxGeometry width="50" height="50" relative="1" as="geometry">
            <mxPoint x="215" y="754.9999999999999" as="sourcePoint" />
            <mxPoint x="215" y="725" as="targetPoint" />
          </mxGeometry>
        </mxCell>
        <mxCell id="Q1qOo3lim8uSCVK3Y5Fo-8" value="" style="endArrow=none;html=1;rounded=0;" edge="1" parent="1">
          <mxGeometry width="50" height="50" relative="1" as="geometry">
            <mxPoint x="220" y="750" as="sourcePoint" />
            <mxPoint x="220" y="730" as="targetPoint" />
          </mxGeometry>
        </mxCell>
        <mxCell id="Q1qOo3lim8uSCVK3Y5Fo-9" value="" style="endArrow=none;html=1;rounded=0;endFill=0;" edge="1" parent="1">
          <mxGeometry width="50" height="50" relative="1" as="geometry">
            <mxPoint x="215" y="730" as="sourcePoint" />
            <mxPoint x="215" y="730" as="targetPoint" />
          </mxGeometry>
        </mxCell>
        <mxCell id="Q1qOo3lim8uSCVK3Y5Fo-10" value="" style="endArrow=none;html=1;rounded=0;endFill=0;startArrow=block;startFill=1;startSize=4;endSize=4;" edge="1" parent="1">
          <mxGeometry width="50" height="50" relative="1" as="geometry">
            <mxPoint x="215" y="750" as="sourcePoint" />
            <mxPoint x="200" y="750" as="targetPoint" />
          </mxGeometry>
        </mxCell>
        <mxCell id="Q1qOo3lim8uSCVK3Y5Fo-11" value="" style="endArrow=none;html=1;rounded=0;endFill=0;startArrow=none;startFill=0;startSize=4;endSize=4;" edge="1" parent="1">
          <mxGeometry width="50" height="50" relative="1" as="geometry">
            <mxPoint x="200" y="720" as="sourcePoint" />
            <mxPoint x="215" y="730" as="targetPoint" />
            <Array as="points">
              <mxPoint x="200" y="730" />
            </Array>
          </mxGeometry>
        </mxCell>
        <mxCell id="Q1qOo3lim8uSCVK3Y5Fo-13" value="" style="endArrow=none;html=1;rounded=0;" edge="1" parent="1">
          <mxGeometry width="50" height="50" relative="1" as="geometry">
            <mxPoint x="200" y="760" as="sourcePoint" />
            <mxPoint x="210" y="750" as="targetPoint" />
            <Array as="points">
              <mxPoint x="200" y="750" />
            </Array>
          </mxGeometry>
        </mxCell>
        <mxCell id="Q1qOo3lim8uSCVK3Y5Fo-14" value="" style="endArrow=none;html=1;rounded=0;endFill=0;startArrow=none;startFill=0;startSize=4;endSize=4;" edge="1" parent="1">
          <mxGeometry width="50" height="50" relative="1" as="geometry">
            <mxPoint x="320" y="760" as="sourcePoint" />
            <mxPoint x="310" y="750" as="targetPoint" />
            <Array as="points">
              <mxPoint x="320" y="750" />
            </Array>
          </mxGeometry>
        </mxCell>
        <mxCell id="Q1qOo3lim8uSCVK3Y5Fo-18" value="" style="endArrow=none;html=1;rounded=0;" edge="1" parent="1">
          <mxGeometry width="50" height="50" relative="1" as="geometry">
            <mxPoint x="220" y="740" as="sourcePoint" />
            <mxPoint x="300" y="740" as="targetPoint" />
          </mxGeometry>
        </mxCell>
        <mxCell id="Q1qOo3lim8uSCVK3Y5Fo-19" value="" style="endArrow=none;html=1;rounded=0;" edge="1" parent="1">
          <mxGeometry width="50" height="50" relative="1" as="geometry">
            <mxPoint x="320" y="750" as="sourcePoint" />
            <mxPoint x="200" y="750" as="targetPoint" />
            <Array as="points">
              <mxPoint x="320" y="770" />
              <mxPoint x="200" y="770" />
            </Array>
          </mxGeometry>
        </mxCell>
        <mxCell id="Q1qOo3lim8uSCVK3Y5Fo-20" value="" style="endArrow=oval;html=1;rounded=0;endSize=4;startSize=4;endFill=0;" edge="1" parent="1">
          <mxGeometry width="50" height="50" relative="1" as="geometry">
            <mxPoint x="200" y="720" as="sourcePoint" />
            <mxPoint x="200" y="690" as="targetPoint" />
          </mxGeometry>
        </mxCell>
        <mxCell id="Q1qOo3lim8uSCVK3Y5Fo-25" value="" style="endArrow=oval;html=1;rounded=0;endSize=4;startSize=4;startArrow=oval;startFill=1;endFill=0;" edge="1" parent="1">
          <mxGeometry width="50" height="50" relative="1" as="geometry">
            <mxPoint x="200" y="770" as="sourcePoint" />
            <mxPoint x="180" y="770" as="targetPoint" />
          </mxGeometry>
        </mxCell>
        <mxCell id="Q1qOo3lim8uSCVK3Y5Fo-26" value="V&lt;sub&gt;SS&lt;/sub&gt;" style="text;html=1;align=center;verticalAlign=middle;resizable=0;points=[];autosize=1;strokeColor=none;fillColor=none;fontSize=9;" vertex="1" parent="1">
          <mxGeometry x="160" y="765" width="40" height="30" as="geometry" />
        </mxCell>
        <mxCell id="Q1qOo3lim8uSCVK3Y5Fo-27" value="" style="endArrow=oval;html=1;rounded=0;endSize=4;startSize=4;endFill=1;startArrow=oval;startFill=1;" edge="1" parent="1">
          <mxGeometry width="50" height="50" relative="1" as="geometry">
            <mxPoint x="260" y="740" as="sourcePoint" />
            <mxPoint x="200" y="710" as="targetPoint" />
            <Array as="points">
              <mxPoint x="260" y="710" />
            </Array>
          </mxGeometry>
        </mxCell>
        <mxCell id="Q1qOo3lim8uSCVK3Y5Fo-28" value="M&lt;sub&gt;1&lt;/sub&gt;" style="text;html=1;align=center;verticalAlign=middle;resizable=0;points=[];autosize=1;strokeColor=none;fillColor=none;fontSize=9;" vertex="1" parent="1">
          <mxGeometry x="180" y="725" width="40" height="30" as="geometry" />
        </mxCell>
        <mxCell id="Q1qOo3lim8uSCVK3Y5Fo-29" value="M&lt;sub&gt;2&lt;/sub&gt;" style="text;html=1;align=center;verticalAlign=middle;resizable=0;points=[];autosize=1;strokeColor=none;fillColor=none;fontSize=9;" vertex="1" parent="1">
          <mxGeometry x="300" y="725" width="40" height="30" as="geometry" />
        </mxCell>
        <mxCell id="Q1qOo3lim8uSCVK3Y5Fo-30" value="V&lt;sub&gt;LOAD&lt;/sub&gt;" style="text;html=1;align=center;verticalAlign=middle;resizable=0;points=[];autosize=1;strokeColor=none;fillColor=none;fontSize=9;" vertex="1" parent="1">
          <mxGeometry x="315" y="675" width="50" height="30" as="geometry" />
        </mxCell>
        <mxCell id="Q1qOo3lim8uSCVK3Y5Fo-31" value="V&lt;sub&gt;REF&lt;/sub&gt;" style="text;html=1;align=center;verticalAlign=middle;resizable=0;points=[];autosize=1;strokeColor=none;fillColor=none;fontSize=9;" vertex="1" parent="1">
          <mxGeometry x="160" y="675" width="40" height="30" as="geometry" />
        </mxCell>
      </root>
    </mxGraphModel>
  </diagram>
</mxfile>
